<svg width="69" height="16" viewBox="0 0 69 16" fill="none" xmlns="http://www.w3.org/2000/svg">
<path d="M0.761364 15V0.454545H5.67614C6.81724 0.454545 7.75 0.660511 8.47443 1.07244C9.2036 1.47964 9.74337 2.03125 10.0938 2.72727C10.4441 3.4233 10.6193 4.19981 10.6193 5.05682C10.6193 5.91383 10.4441 6.69271 10.0938 7.39347C9.74811 8.09422 9.21307 8.65294 8.48864 9.0696C7.7642 9.48153 6.83617 9.6875 5.70455 9.6875H2.18182V8.125H5.64773C6.42898 8.125 7.05634 7.99006 7.52983 7.72017C8.00331 7.45028 8.34659 7.0857 8.55966 6.62642C8.77746 6.16241 8.88636 5.6392 8.88636 5.05682C8.88636 4.47443 8.77746 3.9536 8.55966 3.49432C8.34659 3.03504 8.00095 2.67519 7.52273 2.41477C7.04451 2.14962 6.41004 2.01705 5.61932 2.01705H2.52273V15H0.761364ZM16.6651 15.1989C15.7087 15.1989 14.8848 15.0237 14.1935 14.6733C13.5022 14.3229 12.9696 13.8423 12.5955 13.2315C12.2215 12.6207 12.0344 11.9223 12.0344 11.1364C12.0344 10.5303 12.1623 9.9929 12.418 9.52415C12.6784 9.05066 13.0359 8.61269 13.4904 8.21023C13.9497 7.80303 14.4776 7.39583 15.0742 6.98864L17.1765 5.42614C17.5884 5.15625 17.9175 4.86742 18.1637 4.55966C18.4147 4.25189 18.5401 3.84943 18.5401 3.35227C18.5401 2.98295 18.3768 2.62547 18.0501 2.27983C17.7281 1.93419 17.3043 1.76136 16.7788 1.76136C16.4094 1.76136 16.0827 1.85606 15.7987 2.04545C15.5193 2.23011 15.2991 2.46686 15.1381 2.75568C14.9819 3.03977 14.9038 3.33333 14.9038 3.63636C14.9038 3.97727 14.9961 4.32292 15.1808 4.6733C15.3701 5.01894 15.6093 5.37405 15.8981 5.73864C16.1916 6.09848 16.4947 6.4678 16.8072 6.84659L23.4833 15H21.4663L15.9549 8.35227C15.4435 7.73674 14.9795 7.17803 14.5629 6.67614C14.1462 6.17424 13.8147 5.67945 13.5685 5.19176C13.3223 4.70407 13.1992 4.17614 13.1992 3.60795C13.1992 2.95454 13.3436 2.38163 13.6325 1.8892C13.926 1.39204 14.3356 1.00615 14.8612 0.731534C15.3915 0.452178 16.0117 0.3125 16.7219 0.3125C17.4511 0.3125 18.0785 0.454545 18.604 0.738636C19.1296 1.01799 19.5344 1.38968 19.8185 1.85369C20.1026 2.31297 20.2447 2.8125 20.2447 3.35227C20.2447 4.0483 20.0719 4.65199 19.7262 5.16335C19.3806 5.67472 18.9094 6.15057 18.3129 6.59091L15.4151 8.75C14.7617 9.23295 14.319 9.7017 14.087 10.1562C13.855 10.6108 13.739 10.9375 13.739 11.1364C13.739 11.5909 13.8574 12.0147 14.0941 12.4077C14.3308 12.8007 14.6647 13.1179 15.0955 13.3594C15.5264 13.6009 16.0307 13.7216 16.6083 13.7216C17.1576 13.7216 17.6926 13.6056 18.2134 13.3736C18.7343 13.1368 19.2054 12.7959 19.6268 12.3509C20.0529 11.9058 20.3891 11.3707 20.6353 10.7457C20.8862 10.1207 21.0117 9.41761 21.0117 8.63636H22.631C22.631 9.60227 22.5198 10.3906 22.2972 11.0014C22.0747 11.6122 21.8237 12.0904 21.5444 12.4361C21.265 12.7817 21.0401 13.0398 20.8697 13.2102C20.8129 13.2812 20.7608 13.3523 20.7134 13.4233C20.6661 13.4943 20.614 13.5653 20.5572 13.6364C20.0884 14.1619 19.4966 14.5549 18.7816 14.8153C18.0666 15.071 17.3612 15.1989 16.6651 15.1989ZM34.1172 15L29.1172 8.32386H27.3274V15H25.5661V0.454545H27.3274V6.76136H28.0945L33.9183 0.454545H36.0206L30.1399 6.84659L36.2195 15H34.1172ZM39.4901 15.1136C39.1397 15.1136 38.839 14.9882 38.5881 14.7372C38.3371 14.4863 38.2116 14.1856 38.2116 13.8352C38.2116 13.4848 38.3371 13.1842 38.5881 12.9332C38.839 12.6823 39.1397 12.5568 39.4901 12.5568C39.8404 12.5568 40.1411 12.6823 40.392 12.9332C40.643 13.1842 40.7685 13.4848 40.7685 13.8352C40.7685 14.0672 40.7093 14.2803 40.5909 14.4744C40.4773 14.6686 40.3234 14.8248 40.1293 14.9432C39.9399 15.0568 39.7268 15.1136 39.4901 15.1136ZM44.0036 15V0.454545H49.0888C50.102 0.454545 50.9377 0.629735 51.5959 0.980114C52.254 1.32576 52.7441 1.79214 53.0661 2.37926C53.388 2.96165 53.549 3.60795 53.549 4.31818C53.549 4.94318 53.4377 5.45928 53.2152 5.86648C52.9974 6.27367 52.7086 6.59564 52.3487 6.83239C51.9936 7.06913 51.6077 7.24432 51.1911 7.35795V7.5C51.6361 7.52841 52.0836 7.68466 52.5334 7.96875C52.9832 8.25284 53.3596 8.66004 53.6626 9.19034C53.9657 9.72064 54.1172 10.3693 54.1172 11.1364C54.1172 11.8655 53.9515 12.5213 53.62 13.1037C53.2886 13.6861 52.7654 14.1477 52.0504 14.4886C51.3355 14.8295 50.4051 15 49.2592 15H44.0036ZM45.7649 13.4375H49.2592C50.4098 13.4375 51.2266 13.215 51.7095 12.7699C52.1972 12.3201 52.4411 11.7756 52.4411 11.1364C52.4411 10.6439 52.3156 10.1894 52.0646 9.77273C51.8137 9.35133 51.4562 9.01515 50.9922 8.7642C50.5282 8.50852 49.9789 8.38068 49.3445 8.38068H45.7649V13.4375ZM45.7649 6.84659H49.032C49.5623 6.84659 50.0405 6.74242 50.4666 6.53409C50.8975 6.32576 51.2384 6.0322 51.4893 5.65341C51.745 5.27462 51.8729 4.82955 51.8729 4.31818C51.8729 3.67898 51.6503 3.13684 51.2053 2.69176C50.7602 2.24195 50.0547 2.01705 49.0888 2.01705H45.7649V6.84659ZM55.7614 0.454545H57.7784L61.8125 7.24432H61.983L66.017 0.454545H68.0341L62.7784 9.00568V15H61.017V9.00568L55.7614 0.454545Z" fill="black"/>
<path d="M0.761364 15V0.454545H5.67614C6.81724 0.454545 7.75 0.660511 8.47443 1.07244C9.2036 1.47964 9.74337 2.03125 10.0938 2.72727C10.4441 3.4233 10.6193 4.19981 10.6193 5.05682C10.6193 5.91383 10.4441 6.69271 10.0938 7.39347C9.74811 8.09422 9.21307 8.65294 8.48864 9.0696C7.7642 9.48153 6.83617 9.6875 5.70455 9.6875H2.18182V8.125H5.64773C6.42898 8.125 7.05634 7.99006 7.52983 7.72017C8.00331 7.45028 8.34659 7.0857 8.55966 6.62642C8.77746 6.16241 8.88636 5.6392 8.88636 5.05682C8.88636 4.47443 8.77746 3.9536 8.55966 3.49432C8.34659 3.03504 8.00095 2.67519 7.52273 2.41477C7.04451 2.14962 6.41004 2.01705 5.61932 2.01705H2.52273V15H0.761364ZM16.6651 15.1989C15.7087 15.1989 14.8848 15.0237 14.1935 14.6733C13.5022 14.3229 12.9696 13.8423 12.5955 13.2315C12.2215 12.6207 12.0344 11.9223 12.0344 11.1364C12.0344 10.5303 12.1623 9.9929 12.418 9.52415C12.6784 9.05066 13.0359 8.61269 13.4904 8.21023C13.9497 7.80303 14.4776 7.39583 15.0742 6.98864L17.1765 5.42614C17.5884 5.15625 17.9175 4.86742 18.1637 4.55966C18.4147 4.25189 18.5401 3.84943 18.5401 3.35227C18.5401 2.98295 18.3768 2.62547 18.0501 2.27983C17.7281 1.93419 17.3043 1.76136 16.7788 1.76136C16.4094 1.76136 16.0827 1.85606 15.7987 2.04545C15.5193 2.23011 15.2991 2.46686 15.1381 2.75568C14.9819 3.03977 14.9038 3.33333 14.9038 3.63636C14.9038 3.97727 14.9961 4.32292 15.1808 4.6733C15.3701 5.01894 15.6093 5.37405 15.8981 5.73864C16.1916 6.09848 16.4947 6.4678 16.8072 6.84659L23.4833 15H21.4663L15.9549 8.35227C15.4435 7.73674 14.9795 7.17803 14.5629 6.67614C14.1462 6.17424 13.8147 5.67945 13.5685 5.19176C13.3223 4.70407 13.1992 4.17614 13.1992 3.60795C13.1992 2.95454 13.3436 2.38163 13.6325 1.8892C13.926 1.39204 14.3356 1.00615 14.8612 0.731534C15.3915 0.452178 16.0117 0.3125 16.7219 0.3125C17.4511 0.3125 18.0785 0.454545 18.604 0.738636C19.1296 1.01799 19.5344 1.38968 19.8185 1.85369C20.1026 2.31297 20.2447 2.8125 20.2447 3.35227C20.2447 4.0483 20.0719 4.65199 19.7262 5.16335C19.3806 5.67472 18.9094 6.15057 18.3129 6.59091L15.4151 8.75C14.7617 9.23295 14.319 9.7017 14.087 10.1562C13.855 10.6108 13.739 10.9375 13.739 11.1364C13.739 11.5909 13.8574 12.0147 14.0941 12.4077C14.3308 12.8007 14.6647 13.1179 15.0955 13.3594C15.5264 13.6009 16.0307 13.7216 16.6083 13.7216C17.1576 13.7216 17.6926 13.6056 18.2134 13.3736C18.7343 13.1368 19.2054 12.7959 19.6268 12.3509C20.0529 11.9058 20.3891 11.3707 20.6353 10.7457C20.8862 10.1207 21.0117 9.41761 21.0117 8.63636H22.631C22.631 9.60227 22.5198 10.3906 22.2972 11.0014C22.0747 11.6122 21.8237 12.0904 21.5444 12.4361C21.265 12.7817 21.0401 13.0398 20.8697 13.2102C20.8129 13.2812 20.7608 13.3523 20.7134 13.4233C20.6661 13.4943 20.614 13.5653 20.5572 13.6364C20.0884 14.1619 19.4966 14.5549 18.7816 14.8153C18.0666 15.071 17.3612 15.1989 16.6651 15.1989ZM34.1172 15L29.1172 8.32386H27.3274V15H25.5661V0.454545H27.3274V6.76136H28.0945L33.9183 0.454545H36.0206L30.1399 6.84659L36.2195 15H34.1172ZM39.4901 15.1136C39.1397 15.1136 38.839 14.9882 38.5881 14.7372C38.3371 14.4863 38.2116 14.1856 38.2116 13.8352C38.2116 13.4848 38.3371 13.1842 38.5881 12.9332C38.839 12.6823 39.1397 12.5568 39.4901 12.5568C39.8404 12.5568 40.1411 12.6823 40.392 12.9332C40.643 13.1842 40.7685 13.4848 40.7685 13.8352C40.7685 14.0672 40.7093 14.2803 40.5909 14.4744C40.4773 14.6686 40.3234 14.8248 40.1293 14.9432C39.9399 15.0568 39.7268 15.1136 39.4901 15.1136ZM44.0036 15V0.454545H49.0888C50.102 0.454545 50.9377 0.629735 51.5959 0.980114C52.254 1.32576 52.7441 1.79214 53.0661 2.37926C53.388 2.96165 53.549 3.60795 53.549 4.31818C53.549 4.94318 53.4377 5.45928 53.2152 5.86648C52.9974 6.27367 52.7086 6.59564 52.3487 6.83239C51.9936 7.06913 51.6077 7.24432 51.1911 7.35795V7.5C51.6361 7.52841 52.0836 7.68466 52.5334 7.96875C52.9832 8.25284 53.3596 8.66004 53.6626 9.19034C53.9657 9.72064 54.1172 10.3693 54.1172 11.1364C54.1172 11.8655 53.9515 12.5213 53.62 13.1037C53.2886 13.6861 52.7654 14.1477 52.0504 14.4886C51.3355 14.8295 50.4051 15 49.2592 15H44.0036ZM45.7649 13.4375H49.2592C50.4098 13.4375 51.2266 13.215 51.7095 12.7699C52.1972 12.3201 52.4411 11.7756 52.4411 11.1364C52.4411 10.6439 52.3156 10.1894 52.0646 9.77273C51.8137 9.35133 51.4562 9.01515 50.9922 8.7642C50.5282 8.50852 49.9789 8.38068 49.3445 8.38068H45.7649V13.4375ZM45.7649 6.84659H49.032C49.5623 6.84659 50.0405 6.74242 50.4666 6.53409C50.8975 6.32576 51.2384 6.0322 51.4893 5.65341C51.745 5.27462 51.8729 4.82955 51.8729 4.31818C51.8729 3.67898 51.6503 3.13684 51.2053 2.69176C50.7602 2.24195 50.0547 2.01705 49.0888 2.01705H45.7649V6.84659ZM55.7614 0.454545H57.7784L61.8125 7.24432H61.983L66.017 0.454545H68.0341L62.7784 9.00568V15H61.017V9.00568L55.7614 0.454545Z" fill="black"/>
</svg>
